<svg xmlns="http://www.w3.org/2000/svg" fill="none" viewBox="24.74 13.55 53.27 53.63">
<path d="M38.222 59.7489C38.222 63.3046 35.4186 66.1632 31.9895 66.1632C28.5605 66.1632 25.7571 63.3046 25.7571 59.7489C25.7571 56.1932 28.5605 53.3347 31.9895 53.3347C35.4186 53.3347 38.222 56.1932 38.222 59.7489Z" stroke="white" stroke-width="2.03627"/>
<path d="M56.5171 43.1533C56.5171 47.78 52.8561 51.502 48.3748 51.502C43.8935 51.502 40.2324 47.78 40.2324 43.1533C40.2324 38.5267 43.8935 34.8046 48.3748 34.8046C52.8561 34.8046 56.5171 38.5267 56.5171 43.1533Z" stroke="white" stroke-width="3.25803"/>
<path d="M38.6241 43.1534L48.3748 52.8256L39.1267 59.5453L36.0105 55.2692L32.2911 52.622L38.6241 43.1534Z" fill="white"/>
<ellipse rx="3.35" ry="3.35" transform="matrix(-0.765327 -0.643642 0.633994 -0.773338 32.0074 59.8061)" fill="white"/>
<circle cx="48.2503" cy="43.1969" r="4.5" fill="white"/>
<path d="M67.508 43.8066C70.5874 42.0287 74.4646 43.0272 76.1791 45.9969C77.8937 48.9665 76.8198 52.8235 73.7404 54.6014C70.6611 56.3793 66.7839 55.3807 65.0693 52.4111C63.3548 49.4415 64.4287 45.5844 67.508 43.8066Z" stroke="white" stroke-width="2.03627"/>
<path d="M43.9883 36.2603C47.9951 33.947 53.049 35.2565 55.2897 39.1374C57.5303 43.0183 56.1374 48.0499 52.1306 50.3632C48.1238 52.6766 43.0699 51.367 40.8293 47.4861C38.5886 43.6052 39.9815 38.5736 43.9883 36.2603Z" stroke="white" stroke-width="3.25803"/>
<path d="M52.9348 51.7561L56.4359 38.4756L66.8793 43.1248L64.7342 47.9616L64.3014 52.5062L52.9348 51.7561Z" fill="white"/>
<ellipse rx="3.35" ry="3.35" transform="matrix(-0.174747 0.984613 -0.986727 -0.162385 70.6649 49.1599)" fill="white"/>
<path d="M39.0699 26.2445C35.9906 24.4667 34.9167 20.6096 36.6312 17.64C38.3457 14.6703 42.223 13.6718 45.3023 15.4497C48.3817 17.2275 49.4556 21.0846 47.741 24.0542C46.0265 27.0238 42.1493 28.0224 39.0699 26.2445Z" stroke="white" stroke-width="2.03627"/>
<path d="M44.2945 50.3864C40.2877 48.073 38.8949 43.0415 41.1355 39.1605C43.3762 35.2796 48.4301 33.9701 52.4369 36.2834C56.4437 38.5967 57.8365 43.6283 55.5959 47.5092C53.3552 51.3902 48.3013 52.6997 44.2945 50.3864Z" stroke="white" stroke-width="3.25803"/>
<path d="M53.241 34.8906L39.9892 38.4988L38.7938 27.1299L44.0552 26.5692L48.2074 24.6718L53.241 34.8906Z" fill="white"/>
<ellipse rx="3.35" ry="3.35" transform="matrix(0.940074 -0.340971 0.352734 0.935724 42.1277 20.8339)" fill="white"/>
</svg>